<?xml version="1.0" encoding="UTF-8"?>
<svg id="Calque_2" data-name="Calque 2" xmlns="http://www.w3.org/2000/svg" viewBox="0 0 102.05 91.3">
  <defs>
    <style>
      .cls-1 {
        fill: #f60;
      }

      .cls-2 {
        fill: #9ac200;
      }

      .cls-3 {
        fill: #569eb2;
      }
    </style>
  </defs>
  <g id="Maquette">
    <g>
      <path class="cls-1" d="m13.38,19.65c0,2.86-2.3,4.31-5.96,4.45.84-1.29.84-2.6,0-3.89.81-.2,1.29-.84,1.29-1.65v-1.9C8.7,12.88.34,13.8.34,7.81v-3.02C.34,1.9,2.69.11,6.44,0c-.84,1.29-.84,2.6,0,3.89-.9.14-1.43.78-1.43,1.65v1.37c0,4.11,8.37,2.02,8.37,9.07v3.67Zm-8.37-1.06c0,.87.56,1.51,1.43,1.65.84,1.29.84,2.6,0,3.89-3.75-.08-6.1-1.57-6.1-4.48v-4.42h4.67v3.36Zm3.69-10.41v-2.6c0-.81-.48-1.43-1.29-1.62-.84-1.32-.84-2.6,0-3.92,3.67.17,5.96,1.9,5.96,4.76v3.39h-4.67Z"/>
      <path class="cls-1" d="m14.75,4.34V.48h2.21v3.86h-2.21Zm3.14,19.31V.48h7.84v3.86h-3.16v19.31h-4.67Z"/>
      <path class="cls-1" d="m27.54,23.65V.48h4.67v23.18h-4.67Zm8.68,0c-.31-.73-.31-2.74-.31-4.23v-3.75c0-1.29-.36-2.04-1.54-2.04h-1.26v-3.86h1.26c1.18,0,1.54-.73,1.54-2.02v-1.4c0-1.29-.36-2.02-1.54-2.02h-1.26V.48h3.53c3.86,0,3.95,2.74,3.95,5.15v.67c0,2.3-.08,5.12-3.92,5.49,3.83.31,3.92,2.85,3.92,5.12v3.47c0,1.29.03,2.69.25,3.27h-4.62Z"/>
      <path class="cls-1" d="m47.69,13.63v4.93c0,.87.5,1.54,1.43,1.68.84,1.29.84,2.6,0,3.89-3.75-.11-6.1-1.6-6.1-4.48V4.79c0-2.88,2.35-4.67,6.1-4.79-.84,1.29-.87,2.6.03,3.89-.92.14-1.46.78-1.46,1.65v4.23h3.69v-4.2c0-.81-.48-1.43-1.29-1.62-.84-1.32-.84-2.6,0-3.92,3.67.17,5.96,1.9,5.96,4.76v8.85h-8.37Zm8.37,6.02c0,2.86-2.3,4.31-5.96,4.45.84-1.32.84-2.58,0-3.89.84-.2,1.29-.81,1.29-1.62v-3.36h4.67v4.42Z"/>
      <path class="cls-1" d="m63.28,13.63v4.93c0,.87.5,1.54,1.43,1.68.84,1.29.84,2.6,0,3.89-3.75-.11-6.1-1.6-6.1-4.48V4.79c0-2.88,2.35-4.67,6.1-4.79-.84,1.29-.87,2.6.03,3.89-.92.14-1.46.78-1.46,1.65v4.23h3.69v-4.2c0-.81-.48-1.43-1.29-1.62-.84-1.32-.84-2.6,0-3.92,3.67.17,5.96,1.9,5.96,4.76v8.85h-8.37Zm8.37,6.02c0,2.86-2.3,4.31-5.96,4.45.84-1.32.84-2.58,0-3.89.84-.2,1.29-.81,1.29-1.62v-3.36h4.67v4.42Z"/>
      <path class="cls-1" d="m73.22,4.34V.48h2.21v3.86h-2.21Zm3.14,19.31V.48h7.84v3.86h-3.16v19.31h-4.67Z"/>
      <path class="cls-3" d="m0,47.22h4.67v4.93c0,.81.08,1.48.73,1.68.84,1.32.84,2.58,0,3.89-3.64-.11-5.4-1.62-5.4-4.48v-6.02Zm7.17-13.16h4.67v19.17c0,2.88-1.76,4.34-5.46,4.45.84-1.32.84-2.58,0-3.89.73-.17.78-.78.78-1.62v-18.11Z"/>
      <path class="cls-3" d="m14.41,41.76v-3.39c0-2.88,2.38-4.65,6.1-4.79-.84,1.29-.84,2.6,0,3.89-.9.17-1.43.84-1.43,1.68v2.6h-4.67Zm8.7,15.48c-.31-.5-.34-1.65-.34-3.16v-7.5c-1.93.31-3.69.34-3.69,2.07v3.5c0,.98.7,1.71,1.85,1.71.36,0,.67-.06.95-.17.03.98,0,1.99.11,2.97-.92.59-2.16.95-3.11.95-2.32,0-4.48-1.62-4.48-5.01v-5.43c0-4.48,4.31-3.83,8.37-4.45v-3.55c0-.81-.48-1.43-1.29-1.62-.84-1.32-.84-2.6,0-3.92,3.67.17,5.96,1.9,5.96,4.76v16.49c0,1.01.08,1.93.25,2.38h-4.59Z"/>
      <path class="cls-3" d="m30.31,57.24v-23.18h4.67v23.18h-4.67Zm7.59,0v-18.17c0-.95-.5-1.62-1.48-1.62-.2,0-.39.03-.53.08v-2.94c.76-.59,1.6-.9,2.58-.9,2.74,0,4.09,2.27,4.09,4.98v18.56h-4.65Zm7.56,0v-18.17c0-.95-.48-1.62-1.48-1.62-.2,0-.36,0-.5.06,0-.87-.48-1.93-.87-2.52,1.15-.98,2.49-1.29,3.44-1.29,2.29,0,4.09,1.62,4.09,5.01v18.53h-4.67Z"/>
      <path class="cls-2" d="m.78,90.83v-23.18h4.67v9.29h4.53v3.86h-4.53v10.02H.78Zm5.57-19.31v-3.86h3.81v3.86h-3.81Z"/>
      <path class="cls-2" d="m17.02,80.8v4.93c0,.87.5,1.54,1.43,1.68.84,1.29.84,2.6,0,3.89-3.75-.11-6.1-1.6-6.1-4.48v-14.86c0-2.88,2.35-4.67,6.1-4.79-.84,1.29-.87,2.6.03,3.89-.92.14-1.46.78-1.46,1.65v4.23h3.69v-4.2c0-.81-.48-1.43-1.29-1.62-.84-1.32-.84-2.6,0-3.92,3.67.17,5.96,1.9,5.96,4.76v8.85h-8.37Zm8.37,6.02c0,2.86-2.3,4.31-5.96,4.45.84-1.32.84-2.58,0-3.89.84-.2,1.29-.81,1.29-1.62v-3.36h4.67v4.42Z"/>
      <path class="cls-2" d="m40.7,86.82c0,2.86-2.3,4.31-5.96,4.45.84-1.29.84-2.6,0-3.89.81-.2,1.29-.84,1.29-1.65v-1.9c0-3.78-8.37-2.86-8.37-8.85v-3.02c0-2.88,2.35-4.67,6.1-4.79-.84,1.29-.84,2.6,0,3.89-.9.14-1.43.78-1.43,1.65v1.37c0,4.11,8.37,2.02,8.37,9.07v3.67Zm-8.37-1.06c0,.87.56,1.51,1.43,1.65.84,1.29.84,2.6,0,3.89-3.75-.08-6.1-1.57-6.1-4.48v-4.42h4.67v3.36Zm3.69-10.41v-2.6c0-.81-.48-1.43-1.29-1.62-.84-1.32-.84-2.6,0-3.92,3.67.17,5.96,1.9,5.96,4.76v3.39h-4.67Z"/>
      <path class="cls-2" d="m42.07,71.51v-3.86h2.21v3.86h-2.21Zm3.13,19.31v-23.18h7.84v3.86h-3.16v19.31h-4.67Z"/>
      <path class="cls-2" d="m54.86,90.83v-23.18h4.67v23.18h-4.67Z"/>
      <path class="cls-2" d="m64.15,90.83l-2.74-23.18h4.98l1.82,19.34h4.51l-.45,3.83h-8.12Zm4.79-4.79l-.34-3.41,1.4-14.97h4.98l-2.16,18.39h-3.89Z"/>
      <path class="cls-2" d="m76.44,75.35v-3.39c0-2.88,2.38-4.65,6.1-4.79-.84,1.29-.84,2.6,0,3.89-.9.17-1.43.84-1.43,1.68v2.6h-4.67Zm8.7,15.48c-.31-.5-.34-1.65-.34-3.16v-7.5c-1.93.31-3.69.34-3.69,2.07v3.5c0,.98.7,1.71,1.85,1.71.36,0,.67-.06.95-.17.03.98,0,1.99.11,2.97-.92.59-2.16.95-3.11.95-2.32,0-4.48-1.62-4.48-5.01v-5.43c0-4.48,4.31-3.83,8.37-4.45v-3.55c0-.81-.48-1.43-1.29-1.62-.84-1.32-.84-2.6,0-3.92,3.67.17,5.96,1.9,5.96,4.76v16.49c0,1.01.08,1.93.25,2.38h-4.59Z"/>
      <path class="cls-2" d="m92.33,90.83v-23.18h4.67v23.18h-4.67Zm5.57,0v-3.86h4.14v3.86h-4.14Z"/>
    </g>
  </g>
</svg>